<svg width="1815" height="384" viewBox="0 0 1815 384" fill="none" xmlns="http://www.w3.org/2000/svg">
<path d="M0 0H248.09V46.9213H52.3146V170.427H237.303V217.348H52.3146V377.528H0V0Z" fill="white"/>
<path d="M293.933 0H344.629V377.528H293.933V0Z" fill="white"/>
<path d="M385.065 245.393C385.065 163.955 443.852 106.786 520.976 106.786C598.099 106.786 649.335 158.561 649.335 237.303C649.335 245.393 648.796 254.022 648.256 258.876H436.841C440.077 306.876 475.672 340.854 523.133 340.854C560.346 340.854 588.931 320.359 598.099 295.011L644.481 307.415C630.459 351.64 583.537 384 523.133 384C444.931 384 385.065 326.292 385.065 245.393ZM600.256 220.584C596.481 176.898 563.043 149.932 521.515 149.932C479.987 149.932 446.549 177.438 438.459 220.584H600.256Z" fill="white"/>
<path d="M775.537 195.842L717.29 113.258H661.2L748.018 232.57C747.964 242.4 747.924 249.343 747.856 259.173L659.582 377.528H715.672L775.537 295.658V195.856V195.842Z" fill="white"/>
<path d="M831.087 233.15L918.458 113.258H861.829L802.503 197.379V295.658L862.368 377.528H918.458L831.182 259.712C831.141 249.91 831.114 242.966 831.074 233.15H831.087Z" fill="white"/>
<path d="M937.335 306.876C937.335 262.651 966.998 235.146 1020.93 226.516L1114.77 211.415V202.247C1114.77 169.887 1091.04 149.932 1054.37 149.932C1017.69 149.932 992.346 169.887 981.02 200.089L941.11 180.134C956.751 135.37 999.897 106.786 1054.37 106.786C1120.71 106.786 1165.47 146.696 1165.47 202.247V377.528H1115.31V347.325C1096.98 370.516 1067.85 384 1030.1 384C976.706 384 937.335 355.415 937.335 306.876ZM1041.42 344.629C1086.73 344.629 1114.77 317.123 1114.77 272.898V248.629L1029.56 262.651C1003.67 266.966 987.492 282.067 987.492 304.719C987.492 330.067 1008.53 345.168 1041.42 344.629Z" fill="white"/>
<path d="M1219.4 113.258H1270.1V147.775C1286.82 121.348 1313.25 106.786 1347.22 106.786C1355.31 106.786 1364.48 107.865 1372.57 109.483V154.786C1364.48 152.629 1355.85 152.089 1347.76 152.089C1299.76 152.089 1270.1 183.91 1270.1 230.831V377.528H1219.4V113.258Z" fill="white"/>
<path d="M1380.12 245.393C1380.12 164.494 1439.99 106.786 1518.19 106.786C1596.39 106.786 1656.26 164.494 1656.26 245.393C1656.26 326.292 1596.39 384 1518.19 384C1439.99 384 1380.12 326.831 1380.12 245.393ZM1518.19 338.157C1568.35 338.157 1605.02 299.325 1605.02 245.393C1605.02 191.46 1568.35 152.629 1518.19 152.629C1468.03 152.629 1431.36 192 1431.36 245.393C1431.36 298.786 1467.49 338.157 1518.19 338.157Z" fill="white"/>
<path d="M1724.16 24.8496H1697.76V73.3484H1683.95V24.8496H1657.73V12.9439H1724.17V24.8496H1724.16Z" fill="white"/>
<path d="M1814.51 12.944V73.3485H1800.7V31.3215L1774.21 63.6811H1773.52L1747.02 31.3215V73.3485H1733.65V12.944H1748.67L1774.21 44.8721L1799.74 12.944H1814.49H1814.51Z" fill="white"/>
</svg>
